<?xml version="1.0" encoding="utf-8"?>
<!-- Generator: Adobe Illustrator 19.0.1, SVG Export Plug-In . SVG Version: 6.00 Build 0)  -->
<svg version="1.1" id="Layer_1" xmlns="http://www.w3.org/2000/svg" xmlns:xlink="http://www.w3.org/1999/xlink" x="0px" y="0px"
	 width="76px" height="128px" viewBox="-388 217 76 128" style="enable-background:new -388 217 76 128;" xml:space="preserve">
<style type="text/css">
	.st0{fill:#CED4D7;}
</style>
<g>
	<rect x="-376" y="245" class="st0" width="28" height="4"/>
	<rect x="-376" y="233" class="st0" width="28" height="4"/>
	<path class="st0" d="M-336,217h-44c-4.4,0-8,3.6-8,8v92c0,4.4,3.6,8,8,8h32v20l10-10l10,10v-20h8c4.4,0,8-3.6,8-8v-72L-336,217z
		 M-336,223l18.8,22H-332c-2,0-4-2-4-4V223z M-332,335.4l-6-6l-6,6v-15.6c2,0.8,4,1.2,6,1.2s4-0.4,6-1.2V335.4L-332,335.4z
		 M-338,317c-5.6,0-10-4.4-10-10s4.4-10,10-10c5.6,0,10,4.4,10,10S-332.4,317-338,317z M-316,317c0,2-1.6,4-4,4h-8v-4.4
		c2.4-2.4,4-6,4-9.6c0-7.6-6.4-14-14-14c-7.6,0-14,6.4-14,14c0,4,1.6,7.2,4,9.6v4.4h-32c-2,0-4-1.6-4-4v-92c0-2,1.6-4,4-4h40v20
		c0,4.4,3.6,8,8,8h16V317L-316,317z"/>
	<rect x="-376" y="257" class="st0" width="52" height="4"/>
	<rect x="-376" y="281" class="st0" width="52" height="4"/>
	<rect x="-376" y="269" class="st0" width="52" height="4"/>
</g>
</svg>
