<svg xmlns="http://www.w3.org/2000/svg" width="97.713" height="97.713" viewBox="0 0 97.713 97.713"><path fill="#1976D2" d="M48.855 0C29.02 0 12.883 16.138 12.883 35.974c0 5.174 1.06 10.114 3.146 14.684 8.993 19.68 26.237 40.46 31.31 46.358.38.44.933.695 1.516.695s1.137-.253 1.517-.694c5.07-5.897 22.313-26.676 31.312-46.358 2.088-4.57 3.146-9.51 3.146-14.684C84.83 16.138 68.69 0 48.856 0zm0 54.66c-10.303 0-18.686-8.384-18.686-18.687 0-10.304 8.382-18.687 18.685-18.687S67.54 25.67 67.54 35.973c.002 10.303-8.38 18.686-18.685 18.686z"/><circle fill="#25B0F9" cx="48.356" cy="36.356" r="21"/></svg>