<?xml version="1.0" encoding="utf-8"?>
<!-- Generator: Adobe Illustrator 19.0.1, SVG Export Plug-In . SVG Version: 6.00 Build 0)  -->
<svg version="1.1" id="Слой_1" xmlns="http://www.w3.org/2000/svg" xmlns:xlink="http://www.w3.org/1999/xlink" x="0px" y="0px"
	 width="496.9px" height="218px" viewBox="0 0 496.9 218" enable-background="new 0 0 496.9 218" xml:space="preserve">
<g>
	<g>
		<g>
			<path fill="#0066AC" d="M0,112.9l0,74.1c0,18.6,34.5,18.7,39.5,31.1c5-12.4,39.6-12.5,39.6-31.1l0-74.1H0z M75.5,183.9
				c0,16.8-31.3,16.6-35.9,27.8c-4.5-11.2-35.8-11-35.8-27.8l0-66.9h71.7L75.5,183.9z"/>
		</g>
	</g>
	<path id="path2991_1_" fill="#0066AC" d="M112.7,116.6V131h6.6c0.9-5.5,3-10,6.6-13.4c3.5-3.4,8-5.1,13.5-5.1h0.5
		c6.5,0,11.4,2.2,14.7,6.5c3.3,4.3,5,9.1,5.2,14.3c0,0.1,0,0.3,0,0.4c0,0.1,0,0.3,0,0.5c0,5.7-1.7,10.8-5.1,15.1
		c-3.4,4.4-8.3,6.5-14.8,6.5l-0.5,0.1c-5.7,0-10.5-2-14.2-5.9c-3.7-3.9-5.7-9-5.9-15.4h-6.6v17.1h4.2v3.5h-0.5h-16v-3.5h4.2v-35
		h-4.2v-3.5h0.5h16v3.5H112.7z M128.6,134.1c0,5.8,1,10.4,3.1,13.6c2.1,3.3,4.7,4.9,7.8,5c2.7-0.1,5.2-1.6,7.5-4.6
		c2.2-3,3.3-7.7,3.3-14.1c0-5.7-1-10.3-3-13.6c-2-3.3-4.6-5-7.8-5.1c-3.3,0.1-6,1.9-8,5.3C129.6,124.2,128.6,128.6,128.6,134.1z
		 M163.7,151.6h4.2v-35h-4.2v-3.5h0.5h26.9v8.5h-0.5h-3.5v-4.3H176v34.3h4.6v3.5h-0.5h-16.4V151.6z M192.8,134
		c0-5.5,1.8-10.5,5.5-14.9c3.7-4.5,8.5-6.7,14.5-6.7h0.5c5.9,0,10.7,2.1,14.2,6.3c3.5,4.2,5.5,8.8,5.9,13.9c0,0.3,0,0.5,0,0.8
		c0,0.3,0,0.5,0,0.8c0,5.4-1.8,10.4-5.5,14.9c-3.7,4.5-8.5,6.8-14.6,6.8l-0.5,0.1c-5.9,0-10.6-2.2-14.2-6.4
		c-3.5-4.2-5.5-8.9-5.8-13.9c0-0.3-0.1-0.5-0.1-0.7C192.8,134.5,192.8,134.3,192.8,134L192.8,134z M202.1,134.1c0,6.4,1.1,11,3.4,14
		c2.3,3,4.8,4.5,7.5,4.6c2.7-0.1,5.3-1.6,7.6-4.6c2.3-3,3.5-7.6,3.5-14c0-5.7-1-10.3-3.1-13.6c-2.1-3.3-4.7-5-7.9-5.1
		c-3.3,0.1-6,1.8-7.9,5.3C203.1,124.2,202.1,128.6,202.1,134.1z M248.9,139v12.6h4.3v3.5h-0.5h-16.1v-3.5h4.2v-35h-4.2v-3.5h0.5
		h13.4c0.8,0,1.6,0,2.5,0.1c0.9,0,1.8,0.1,2.6,0.3c2.6,0.4,4.9,1.5,7.1,3.2c2.1,1.7,3.2,4.8,3.2,9.1c0,3.6-1.1,6.7-3.3,9.3
		c-2.2,2.7-6.3,4-12.4,3.9c-0.1,0-0.2,0-0.3,0c-0.1,0-0.2,0-0.3,0c-0.1,0-0.2,0-0.3,0C249.1,139,249,139,248.9,139L248.9,139z
		 M248.9,116.6v19.3c0.1,0,0.1,0,0.2,0c0.1,0,0.1,0,0.2,0c0,0,0.1,0.1,0.2,0.1c0.1,0,0.1,0,0.2,0c0.4,0,0.8,0,1.2-0.1
		c0.4-0.1,0.9-0.2,1.3-0.3c1.4-0.4,2.7-1.4,3.9-2.9c1.2-1.5,1.7-3.9,1.7-7.2c0-2.8-0.6-4.8-1.8-6.1c-1.2-1.3-2.5-2.1-4-2.4
		c-0.4-0.1-0.8-0.2-1.2-0.2c-0.4-0.1-0.8-0.1-1.2-0.1c0,0-0.1,0-0.2,0c-0.1,0-0.1,0-0.2,0c0,0-0.1,0.1-0.2,0.1
		C249.1,116.6,249,116.6,248.9,116.6z M281.5,142.6l15.5-24.4v-1.6h-4.2v-3.5h0.5h16v3.5h-4.2v35h4.2v3.5h-0.5h-16v-3.5h4.2v-26.7
		l-15.5,24.4v2.3h4.2v3.5h-0.5h-16v-3.5h4.2v-35h-4.2v-3.5h0.5h16v3.5h-4.2V142.6z M343,116.6v35h4.2v3.5h-0.5h-16v-3.5h4.2v-13.4
		c-0.1,0-0.1,0-0.2,0c-0.1,0-0.1,0-0.2,0c-0.1,0-0.1,0-0.2,0c-0.1,0-0.1,0-0.2,0c-1.2,0-2.1,0.4-2.6,0.9c-0.5,0.6-1,1.3-1.4,2.2
		c-0.1,0.1-0.1,0.2-0.2,0.3c-0.1,0.1-0.1,0.2-0.1,0.3l-4.7,10.6c-0.3,0.7-0.7,1.3-1.2,1.7c-0.5,0.4-0.9,0.7-1.4,0.9
		c-0.6,0.3-1.1,0.4-1.7,0.5c-0.5,0.1-0.9,0.1-1.2,0.1l-0.5,0.1c-0.1,0-0.1-0.1-0.2-0.1c-0.1,0-0.1,0-0.2,0c-1,0-1.9-0.1-2.8-0.2
		c-0.9-0.1-1.7-0.3-2.5-0.4c-0.1,0-0.2,0-0.3,0c-0.1,0-0.2,0-0.3,0v-3.5c1.1-0.1,2-0.3,2.6-0.5c0.6-0.3,1.2-0.8,1.7-1.5
		c0.2-0.3,0.4-0.7,0.6-1.1c0.2-0.4,0.4-0.8,0.7-1.3l3.3-6.8c0.3-0.7,0.6-1.3,1-1.7c0.3-0.4,0.6-0.8,1-1.1c0.3-0.3,0.6-0.4,0.9-0.6
		c0.3-0.1,0.6-0.2,1-0.3v-0.4c-2.7-0.7-4.7-1.8-5.9-3.5c-1.3-1.7-2.1-3.4-2.4-5.2c-0.1-0.4-0.1-0.8-0.2-1.1c0-0.4-0.1-0.8-0.1-1.1
		c0-0.3,0-0.6,0-0.9c0-0.3,0-0.6,0.1-0.9c0.4-2.6,1.6-5,3.7-7.1c2.1-2.2,5.1-3.2,9.1-3.2h0.5h17v3.5H343L343,116.6z M334.8,116.6
		h-2.5c-1.9,0-3.5,0.8-4.8,2.4c-1.3,1.6-2,3.7-2,6.3c0,3.3,0.7,5.8,2.1,7.2c1.4,1.5,3.4,2.3,6.1,2.4c0.1,0,0.2,0,0.3,0
		c0.1,0,0.2,0,0.3-0.1c0.1,0,0.2,0,0.2,0c0.1,0,0.2,0,0.3,0V116.6z M352.4,143.1v-8.6h14.4v8.6H352.4z M393.4,141.6l12.2-28.6h0.5
		h11.6v3.5h-4.2v35h4.2v3.5h-0.5h-15.8v-3.5h4.2v-28.7l-12,28.4h-0.5h-4L377,122.9v28.7h4.2v3.5h-0.5h-11.2v-3.5h4.2v-35h-4.2v-3.5
		h0.5h11.3L393.4,141.6L393.4,141.6z M422.2,151.6h4.2v-35h-4.2v-3.5h0.5h27.9v8.3H450h-2.9v-4.1h-12.6V131h10.6v-4.6h0.5h2.8v12.5
		h-0.5h-2.8v-4.3h-10.6v16.3h13.7v-4.8h0.5h2.8v9H451h-28.9V151.6z M475.5,113.1l11.9,38.5h4.1l-0.1,12.2l-1.4,0l-4.7,0v-8.6h-25.7
		l-0.1,8.7l-6.1-0.1v-12.1h4.1l11.2-35h-4v-3.5h0.5L475.5,113.1L475.5,113.1z M470.5,123.7l-8.7,27.2h16.7l-7.8-27.2l-0.1-1.1
		L470.5,123.7z"/>
	<g>
		<g>
			<path fill="#0066AC" d="M59.5,126.1c-3.6-1.1-7.1-0.2-9.5,0.5c-3.3,1-5.1,2.4-8.2,2.9c-5.6-0.8-9.3,0.2-10.3,4.1l-0.1,0.7
				c-1.1,0.5-1.8,0.7-3,0.8c-0.4,0.1-1.9,0.9-1.9,1.3c0,0,1.8-0.6,1.8-0.5l-1.4,0.9c0,0,1,0,1.2,0c0.9,0,2.8-1.4,3.6-1.8l0.6,0.4
				c3,1.6,6.5,0,10.2-3.7c4.7-0.6,9.5-2,12.8-1.3c19.8,4.4,12.6,28.4-15.8,33.7l0.2-4.2c15-3.1,19.7-11.1,21.4-20.6
				c-17-0.1-34-0.1-51-0.2c3.1,11.4,9.7,18.9,21.4,21c0,2,0.1,4,0.1,6.1c-16.8,6.3-11.6,14.7-3,17.2c1.2,0.4,2.3,0.6,3.4,0.9
				c0,1.3,0.1,2.6,0.1,3.9c-3.9,2.9-8,4.4-12.3,5.4l-0.1,2.3h30.9l0-0.3c3.1-4.5,3.1-9-11.5-13.4c-0.1,0-0.2-0.1-0.3-0.1l0.5-11.8
				C74,164.3,83.1,133.2,59.5,126.1z M31.6,172.2c0.1,2.6,0.1,5.3,0.2,7.9C24.3,177.4,24.6,174.8,31.6,172.2z M39,185.5
				c4.1,0.6,9.1,1.3,11.6,5c0.5,0.7,0.5,2,0.4,2.9l-0.6,1.9l0-1.4c-4.1-0.4-8.3-2.2-12-5.5l0.1-2.9C38.7,185.5,38.9,185.5,39,185.5z
				"/>
		</g>
	</g>
	<g>
		<g>
			<path fill="#0066AC" d="M67.3,88.7l-2.9-0.1c-0.5,0-0.9,0.1-1.2,0.4l-11.3,11.2c-0.4,0.4-0.8,0.5-1.3,0.5l-3.5,0
				c-0.3,0-0.3-0.4-0.1-0.6l9.9-9.7c1-1,0.6-1.6-0.4-1.6l-1.7,0c-0.9,0-1.6,0.2-2.4,0.9L49.7,92c-0.4,0.4-0.8,0.5-1.6,0.1l-3-1.8
				c-0.6-0.3-1.2-0.6-1.7-0.1l-1.2,1.3c-0.4,0.4-0.2,0.9,0.3,1.3l2.9,2c0.6,0.4,1.2,0.9,0.8,1.3l-4.6,4.6c-0.5,0.4-3,0.3-3.5-0.1
				l-4.6-4.6c-0.4-0.4,0.3-0.8,0.8-1.2l2.9-2c0.5-0.3,0.7-0.8,0.3-1.3l-1.2-1.3c-0.5-0.5-1.1-0.3-1.7,0.1l-3,1.8
				c-0.7,0.4-1.1,0.3-1.6-0.1l-2.7-2.4c-0.7-0.7-1.5-0.9-2.4-0.9l-1.7,0c-1,0-1.4,0.7-0.4,1.6l9.9,9.7c0.2,0.2,0.3,0.6-0.1,0.6
				l-3.5,0c-0.5,0-1-0.2-1.3-0.5L16.4,89c-0.3-0.3-0.7-0.4-1.2-0.4l-2.9,0.1c-0.8,0-0.5,1,0,1.5l13.6,13.6l13.9,0l13.9,0l13.6-13.6
				C67.8,89.7,68.1,88.7,67.3,88.7z M71.4,83.6c-2.7,0.2-6.6,1.3-9.2-2.2c-1.6-2.3-6.1-2.6-7.5-1c-1.7,2.1-4,3-6.9,0.6
				c-2.3-2-5-2.6-8.1-2.6c-3.1,0-5.8,0.6-8.1,2.6c-2.9,2.4-5.1,1.5-6.9-0.6c-1.4-1.6-5.8-1.3-7.5,1c-2.5,3.5-6.4,2.4-9.2,2.2
				c-3.6-0.3-6.5,5.1-3.7,8.1l16.3,17.4l19,0h18.9L75,91.7C77.8,88.7,75,83.3,71.4,83.6z M70.8,92.5c-4.4,4.8-8.7,9.3-13.1,14.1
				l-17.7,0l-17.7-0.1c-4.4-4.8-9.1-9.3-13.6-14.1c-3.6-3.8-1.7-6.7,2.5-6c2.2,0.3,5.4,1.1,7.5-1.8c1.3-1.9,4.4-2.5,6.7,0.1
				c1.5,1.7,3.6,1.8,5.9-0.2c1.9-1.6,5.7-2.8,8.3-2.8c2.6,0,6.4,1.1,8.3,2.8c2.4,2,4.5,1.8,5.9,0.2c2.3-2.6,5.4-1.9,6.7-0.1
				c2.1,2.9,5.3,2.1,7.5,1.8C72.5,85.8,74.3,88.7,70.8,92.5z"/>
		</g>
	</g>
</g>
<g>
	<rect x="10" y="56.8" fill="#969696" width="478.6" height="2"/>
</g>
<g>
	<path fill="#0066AC" d="M110.9,182c-0.2,1.6-0.6,3-1.5,4c-1.2,1.3-2.8,1.5-3.7,1.5c-1.8,0-2.9-0.7-3.7-1.4c-1.4-1.4-2-3.9-2-6.3
		c0-2.3,0.5-5,2.1-6.5c1.3-1.2,2.8-1.3,3.6-1.3c0.8,0,2.2,0.1,3.4,1.2c1.1,1,1.7,2.6,1.7,4.6l-3,0.2c0-0.9-0.1-2-0.8-2.8
		c-0.3-0.4-0.8-0.6-1.4-0.6c-0.6,0-1,0.3-1.3,0.6c-0.8,0.9-0.9,3.2-0.9,4.6c0,2.6,0.4,3.6,0.7,4c0.4,0.6,0.9,0.8,1.6,0.8
		c0.6,0,1-0.2,1.4-0.8c0.4-0.6,0.6-1.3,0.7-2.2L110.9,182z"/>
	<path fill="#0066AC" d="M120.1,187.3H117v-8.8h-2.7V176h8.5v2.5h-2.7V187.3z"/>
	<path fill="#0066AC" d="M129.8,176v1.7c0.2-0.6,0.6-1.1,1-1.3c0.4-0.3,1-0.5,1.7-0.5c0.7,0,1.5,0.3,2,0.8c1.1,0.9,1.5,2.8,1.5,4.8
		c0,1.8-0.3,3.9-1.3,5c-0.5,0.5-1.3,1.1-2.5,1.1c-0.5,0-0.9-0.1-1.3-0.3c-0.3-0.2-0.5-0.4-0.8-0.6v4.6h-3.1v-15H129.8z M129.9,183.5
		c0,1,0.2,1.4,0.4,1.5c0.3,0.3,0.7,0.4,0.9,0.4c0.4,0,0.7,0,1-0.5c0.3-0.5,0.4-1.4,0.4-3.4c0-1.5,0-2.4-0.4-3
		c-0.3-0.4-0.6-0.5-0.9-0.5c-0.6,0-0.9,0.2-1.2,0.7c-0.2,0.5-0.3,1-0.3,1.5V183.5z"/>
	<path fill="#0066AC" d="M140.5,179.3c0.1-0.9,0.6-1.7,1.1-2.2c0.6-0.6,1.7-1.3,3.5-1.3c0.9,0,1.8,0.1,2.6,0.7
		c1.3,0.9,1.3,2,1.3,3.8v4.5c0,1.7,0.1,2.1,0.2,2.5h-2.9c-0.2-0.7-0.2-1.5-0.2-1.7c-0.2,0.4-0.5,0.8-0.8,1.1
		c-0.5,0.5-1.3,0.8-2.2,0.8c-0.7,0-1.5-0.2-2.1-0.8c-0.4-0.4-0.9-1.1-0.9-2.4c0-0.8,0.2-1.6,0.7-2.3c0.7-0.9,1.7-1.2,2.3-1.4
		c0.9-0.2,1.8-0.3,2.8-0.4v-0.9c0-0.4,0-0.8-0.3-1.1c-0.2-0.2-0.4-0.4-0.9-0.4c-0.5,0-0.8,0.3-1,0.6c-0.1,0.2-0.2,0.4-0.3,1.1
		L140.5,179.3z M145.9,181.9l-0.4,0.1c-0.9,0.2-1.5,0.4-1.8,0.9c-0.2,0.4-0.3,0.8-0.3,1.2c0,0.3,0.1,0.6,0.3,0.9
		c0.2,0.3,0.5,0.4,0.8,0.4c0.8,0,1-0.5,1.2-1c0.2-0.7,0.3-1.3,0.3-2V181.9z"/>
	<path fill="#0066AC" d="M156.2,176l1.2,2.6l1.5-2.6h2.7l-2.9,5l3.3,6.2h-3.4l-1.6-3.4l-1.9,3.4h-2.7l3.3-5.7l-2.9-5.5H156.2z"/>
	<path fill="#0066AC" d="M172.5,177c1.3,1.4,1.4,3.5,1.4,4.6c0,1.2-0.1,3.3-1.4,4.6c-1,1.1-2.2,1.2-3.1,1.2c-1,0-2.1-0.1-3.1-1.2
		c-1.3-1.4-1.4-3.5-1.4-4.6c0-1.2,0.1-3.3,1.4-4.6c1-1.1,2.2-1.2,3.1-1.2C170.3,175.8,171.5,175.9,172.5,177z M168.5,178.5
		c-0.2,0.4-0.4,1.1-0.4,3.1c0,2.1,0.2,2.8,0.4,3.1c0.2,0.2,0.4,0.5,0.9,0.5c0.4,0,0.7-0.3,0.9-0.5c0.2-0.4,0.4-1.1,0.4-3.1
		c0-2.1-0.2-2.8-0.4-3.1c-0.2-0.2-0.4-0.5-0.9-0.5C168.9,178,168.6,178.3,168.5,178.5z"/>
	<path fill="#0066AC" d="M183.6,176c0.7,0,1.6,0.1,2.2,0.6c0.4,0.4,0.9,1,0.9,2.1c0,0.6-0.1,1.2-0.6,1.8c-0.2,0.3-0.6,0.6-1.2,0.7v0
		c0.8,0.1,1.3,0.5,1.6,0.8c0.5,0.6,0.6,1.3,0.6,2c0,0.7-0.1,1.7-1,2.4c-0.6,0.5-1.3,0.7-2.1,0.7h-5.7V176H183.6z M181.4,180.6h0.9
		c0.3,0,0.8,0,1.1-0.4c0.2-0.3,0.3-0.8,0.3-1c0-0.5-0.1-0.9-0.4-1.1c-0.3-0.3-0.7-0.3-1-0.3h-0.9V180.6z M181.4,185.5h1.2
		c0.4,0,0.9,0,1.2-0.5c0.2-0.2,0.3-0.7,0.3-1.1c0-0.5-0.2-0.9-0.4-1.2c-0.2-0.2-0.6-0.4-1.1-0.4h-1.1V185.5z"/>
	<path fill="#0066AC" d="M192,179.3c0.1-0.9,0.6-1.7,1.1-2.2c0.6-0.6,1.7-1.3,3.5-1.3c0.9,0,1.8,0.1,2.6,0.7c1.3,0.9,1.3,2,1.3,3.8
		v4.5c0,1.7,0.1,2.1,0.2,2.5h-2.9c-0.2-0.7-0.2-1.5-0.2-1.7c-0.2,0.4-0.5,0.8-0.8,1.1c-0.5,0.5-1.3,0.8-2.2,0.8
		c-0.7,0-1.5-0.2-2.1-0.8c-0.4-0.4-0.9-1.1-0.9-2.4c0-0.8,0.2-1.6,0.7-2.3c0.7-0.9,1.7-1.2,2.3-1.4c0.9-0.2,1.8-0.3,2.8-0.4v-0.9
		c0-0.4,0-0.8-0.3-1.1c-0.2-0.2-0.4-0.4-0.9-0.4c-0.5,0-0.8,0.3-1,0.6c-0.1,0.2-0.2,0.4-0.3,1.1L192,179.3z M197.4,181.9L197,182
		c-0.9,0.2-1.5,0.4-1.8,0.9c-0.2,0.4-0.3,0.8-0.3,1.2c0,0.3,0.1,0.6,0.3,0.9c0.2,0.3,0.5,0.4,0.8,0.4c0.8,0,1-0.5,1.2-1
		c0.2-0.7,0.3-1.3,0.3-2V181.9z"/>
	<path fill="#0066AC" d="M213.9,187.3h-3v-3.9h-1.3l-1.4,3.9h-3.3l2-4.6c-0.3-0.1-0.7-0.3-1.1-0.8c-0.4-0.6-0.7-1.4-0.7-2.2
		c0-0.7,0.2-1.7,0.7-2.3c0.9-1.2,2.2-1.3,2.8-1.3h5.2V187.3z M209.8,178.1c-0.6,0-1,0.2-1.2,0.4c-0.4,0.4-0.4,0.9-0.4,1.3
		c0,0.3,0,0.8,0.4,1.2c0.3,0.3,0.8,0.4,1.3,0.4h1v-3.2H209.8z"/>
	<path fill="#0066AC" d="M230.5,176l1.9,6.6l1.9-6.6h3.7v11.2h-2.7v-6.6c0-0.5,0-0.5,0-0.9c0-0.2,0-0.4,0-1.1
		c-0.2,0.8-0.5,1.6-0.6,1.9l-1.8,6.6h-1.5l-1.9-6.6c-0.2-0.6-0.2-0.8-0.5-1.9c0,0.8,0,1,0,1.3c0,0.4,0,0.6,0,0.9v6.4h-2.3V176H230.5
		z"/>
	<path fill="#0066AC" d="M245.8,182.2c0,1.6,0.1,2.3,0.3,2.6c0.3,0.5,0.8,0.6,1.2,0.6c0.3,0,0.8,0,1.1-0.5c0.3-0.4,0.4-1.1,0.4-1.5
		l2.8,0.2c-0.2,0.8-0.5,1.9-1.2,2.6c-1,1.1-2.4,1.3-3.3,1.3c-0.9,0-2.1-0.2-3.2-1.2c-1-1-1.5-2.7-1.5-4.5c0-1.7,0.4-3.5,1.4-4.6
		c0.6-0.6,1.6-1.3,3.2-1.3c1.8,0,2.9,0.9,3.7,2c0.9,1.5,0.9,3.5,0.8,4.3H245.8z M248.8,180.4c0-0.9-0.1-1.5-0.4-1.9
		c-0.2-0.3-0.6-0.5-1.1-0.5c-0.4,0-0.8,0.2-1.1,0.6c-0.3,0.4-0.3,1-0.4,1.8H248.8z"/>
	<path fill="#0066AC" d="M264.4,176v8.9h1v5.3h-2.7v-2.9H258v2.9h-2.7V185h0.8c0.3-0.6,0.8-1.9,1-4c0.1-1.1,0.2-2.9,0.2-4.1V176
		H264.4z M259.7,178.8c0,0.7-0.1,2.7-0.2,3.3c-0.1,1-0.3,1.8-0.7,2.9h2.6v-6.6h-1.7V178.8z"/>
	<path fill="#0066AC" d="M272.6,176v5.2c0,0.1,0,0.4-0.1,1.4c0.3-0.6,0.4-0.9,0.5-1.2l2.5-4.8V176h2.9v11.2h-2.9v-5.4
		c0-0.4,0-0.6,0.1-1.4c-0.2,0.4-0.4,0.9-0.5,1.2l-2.5,4.7v0.9h-2.9V176H272.6z"/>
	<path fill="#0066AC" d="M283.5,176h3.1v8.8h2.3V176h3.1v8.8h1.1v5.4h-2.7v-2.9h-7V176z"/>
	<path fill="#0066AC" d="M300.1,176v5.2c0,0.1,0,0.4-0.1,1.4c0.3-0.6,0.4-0.9,0.5-1.2l2.5-4.8V176h2.9v11.2H303v-5.4
		c0-0.4,0-0.6,0.1-1.4c-0.2,0.4-0.4,0.9-0.5,1.2l-2.5,4.7v0.9h-2.9V176H300.1z"/>
	<path fill="#0066AC" d="M316.6,180.2V176h3.1v11.2h-3.1v-4.6h-2.5v4.6H311V176h3.1v4.1H316.6z"/>
	<path fill="#0066AC" d="M330.3,180.3c0-0.7-0.1-1.2-0.3-1.5c-0.3-0.4-0.7-0.5-0.9-0.5c-0.3,0-0.8,0.1-1.1,0.7
		c-0.2,0.3-0.4,1-0.4,2.7c0,1.3,0.1,2.1,0.5,2.7c0.2,0.4,0.5,0.6,1,0.6c0.4,0,0.7-0.1,0.9-0.5c0.2-0.3,0.3-0.7,0.4-1.7l2.9,0.2
		c0,0.6-0.3,2.1-1.1,3.1c-0.5,0.6-1.6,1.3-3.2,1.3c-1.7,0-2.7-0.7-3.2-1.3c-1.2-1.3-1.4-3.3-1.4-4.5c0-1.2,0.1-3.2,1.4-4.6
		c1.1-1.1,2.4-1.3,3.3-1.3c0.9,0,2,0.1,2.9,1.2c0.8,0.9,1.2,2.1,1.2,3.2L330.3,180.3z"/>
	<path fill="#0066AC" d="M340.7,180.4h1.1c0.3,0,0.7-0.1,0.9-0.3c0.1-0.2,0.2-0.4,0.3-1c0-0.4,0.1-1,0.2-1.5
		c0.1-0.4,0.3-0.8,0.7-1.2c0.5-0.4,1.2-0.5,1.5-0.5c0.4,0,0.8,0.1,1,0.1v2c-0.3-0.1-0.5,0.1-0.7,0.3c0,0.1-0.1,0.3-0.2,0.7l-0.1,0.8
		c0,0.4-0.3,0.9-0.6,1.1c-0.2,0.2-0.5,0.3-0.8,0.4v0c0.8,0.2,1.1,0.8,1.2,1c0.2,0.5,0.2,0.8,0.3,1.7c0,0.3,0.1,0.5,0.2,0.7
		c0.2,0.2,0.5,0.3,0.8,0.2v2.3c-0.2,0.1-0.6,0.2-1.2,0.2c-0.5,0-1.1-0.1-1.5-0.3c-0.8-0.5-1-1.4-1.1-2c-0.1-0.6-0.1-1.2-0.2-1.7
		c-0.1-0.5-0.2-0.9-1-0.9h-1.1v4.7h-3.1V176h3.1V180.4z"/>
	<path fill="#0066AC" d="M350.8,179.3c0.1-0.9,0.6-1.7,1.1-2.2c0.6-0.6,1.7-1.3,3.5-1.3c0.9,0,1.8,0.1,2.6,0.7
		c1.3,0.9,1.3,2,1.3,3.8v4.5c0,1.7,0.1,2.1,0.2,2.5h-2.9c-0.2-0.7-0.2-1.5-0.2-1.7c-0.2,0.4-0.5,0.8-0.8,1.1
		c-0.5,0.5-1.3,0.8-2.2,0.8c-0.7,0-1.5-0.2-2.1-0.8c-0.4-0.4-0.9-1.1-0.9-2.4c0-0.8,0.2-1.6,0.7-2.3c0.7-0.9,1.7-1.2,2.3-1.4
		c0.9-0.2,1.8-0.3,2.8-0.4v-0.9c0-0.4,0-0.8-0.3-1.1c-0.2-0.2-0.4-0.4-0.9-0.4c-0.6,0-0.8,0.3-1,0.6c-0.1,0.2-0.2,0.4-0.3,1.1
		L350.8,179.3z M356.2,181.9l-0.4,0.1c-0.9,0.2-1.5,0.4-1.8,0.9c-0.2,0.4-0.3,0.8-0.3,1.2c0,0.3,0.1,0.6,0.3,0.9
		c0.2,0.3,0.5,0.4,0.8,0.4c0.8,0,1-0.5,1.2-1c0.2-0.7,0.3-1.3,0.3-2V181.9z"/>
	<path fill="#0066AC" d="M372.7,187.3h-3v-3.9h-1.3l-1.4,3.9h-3.3l2-4.6c-0.3-0.1-0.7-0.3-1.1-0.8c-0.4-0.6-0.7-1.4-0.7-2.2
		c0-0.7,0.2-1.7,0.7-2.3c0.9-1.2,2.2-1.3,2.8-1.3h5.2V187.3z M368.6,178.1c-0.6,0-1,0.2-1.2,0.4c-0.4,0.4-0.4,0.9-0.4,1.3
		c0,0.3,0,0.8,0.4,1.2c0.3,0.3,0.8,0.4,1.3,0.4h1v-3.2H368.6z"/>
	<path fill="#0066AC" d="M388.7,180.4h1.1c0.3,0,0.7-0.1,0.9-0.3c0.1-0.2,0.2-0.4,0.3-1c0-0.4,0.1-1,0.2-1.5
		c0.1-0.4,0.3-0.8,0.7-1.2c0.5-0.4,1.2-0.5,1.5-0.5c0.4,0,0.8,0.1,1,0.1v2c-0.3-0.1-0.6,0.1-0.7,0.3c0,0.1-0.1,0.3-0.2,0.7l-0.1,0.8
		c0,0.4-0.3,0.9-0.6,1.1c-0.2,0.2-0.5,0.3-0.8,0.4v0c0.8,0.2,1.1,0.8,1.2,1c0.2,0.5,0.2,0.8,0.3,1.7c0,0.3,0.1,0.5,0.2,0.7
		c0.2,0.2,0.5,0.3,0.8,0.2v2.3c-0.2,0.1-0.6,0.2-1.2,0.2c-0.5,0-1.1-0.1-1.5-0.3c-0.8-0.5-1-1.4-1.1-2c-0.1-0.6-0.1-1.2-0.2-1.7
		c-0.1-0.5-0.2-0.9-1-0.9h-1.1v4.7h-3.1V176h3.1V180.4z"/>
	<path fill="#0066AC" d="M406,177c1.3,1.4,1.4,3.5,1.4,4.6c0,1.2-0.1,3.3-1.4,4.6c-1,1.1-2.2,1.2-3.1,1.2c-1,0-2.1-0.1-3.1-1.2
		c-1.3-1.4-1.4-3.5-1.4-4.6c0-1.2,0.1-3.3,1.4-4.6c1-1.1,2.2-1.2,3.1-1.2C403.8,175.8,405,175.9,406,177z M402,178.5
		c-0.2,0.4-0.4,1.1-0.4,3.1c0,2.1,0.2,2.8,0.4,3.1c0.2,0.2,0.4,0.5,0.9,0.5c0.4,0,0.7-0.3,0.9-0.5c0.2-0.4,0.4-1.1,0.4-3.1
		c0-2.1-0.2-2.8-0.4-3.1c-0.2-0.2-0.4-0.5-0.9-0.5C402.4,178,402.1,178.3,402,178.5z"/>
	<path fill="#0066AC" d="M415.7,176l1.9,6.6l1.9-6.6h3.7v11.2h-2.7v-6.6c0-0.5,0-0.5,0-0.9c0-0.2,0-0.4,0-1.1
		c-0.2,0.8-0.5,1.6-0.6,1.9l-1.8,6.6h-1.5l-1.9-6.6c-0.2-0.6-0.2-0.8-0.6-1.9c0,0.8,0,1,0,1.3c0,0.4,0,0.6,0,0.9v6.4H412V176H415.7z
		"/>
	<path fill="#0066AC" d="M436.8,176v11.2h-3.1v-8.8h-2.4v8.8h-3.1V176H436.8z"/>
	<path fill="#0066AC" d="M441.9,179.3c0.1-0.9,0.5-1.7,1.1-2.2c0.6-0.6,1.7-1.3,3.5-1.3c0.9,0,1.8,0.1,2.6,0.7
		c1.3,0.9,1.3,2,1.3,3.8v4.5c0,1.7,0.1,2.1,0.2,2.5h-2.9c-0.2-0.7-0.2-1.5-0.2-1.7c-0.2,0.4-0.5,0.8-0.8,1.1
		c-0.5,0.5-1.3,0.8-2.2,0.8c-0.7,0-1.5-0.2-2.1-0.8c-0.4-0.4-0.9-1.1-0.9-2.4c0-0.8,0.2-1.6,0.7-2.3c0.7-0.9,1.7-1.2,2.3-1.4
		c0.9-0.2,1.8-0.3,2.8-0.4v-0.9c0-0.4,0-0.8-0.3-1.1c-0.2-0.2-0.4-0.4-0.9-0.4c-0.6,0-0.8,0.3-1,0.6c-0.1,0.2-0.2,0.4-0.3,1.1
		L441.9,179.3z M447.3,181.9l-0.4,0.1c-0.9,0.2-1.5,0.4-1.8,0.9c-0.2,0.4-0.3,0.8-0.3,1.2c0,0.3,0.1,0.6,0.3,0.9
		c0.2,0.3,0.5,0.4,0.8,0.4c0.8,0,1-0.5,1.2-1c0.2-0.7,0.3-1.3,0.3-2V181.9z"/>
	<path fill="#0066AC" d="M461.1,180.2V176h3.1v11.2h-3.1v-4.6h-2.5v4.6h-3.1V176h3.1v4.1H461.1z"/>
	<path fill="#0066AC" d="M472.2,176v5.2c0,0.1,0,0.4-0.1,1.4c0.3-0.6,0.4-0.9,0.5-1.2l2.5-4.8V176h2.9v11.2h-2.9v-5.4
		c0-0.4,0-0.6,0.1-1.4c-0.2,0.4-0.4,0.9-0.5,1.2l-2.5,4.7v0.9h-2.9V176H472.2z"/>
	<path fill="#0066AC" d="M491.4,187.3h-3v-3.9h-1.3l-1.4,3.9h-3.3l2-4.6c-0.3-0.1-0.7-0.3-1.1-0.8c-0.4-0.6-0.7-1.4-0.7-2.2
		c0-0.7,0.2-1.7,0.7-2.3c0.9-1.2,2.2-1.3,2.8-1.3h5.2V187.3z M487.3,178.1c-0.6,0-1,0.2-1.2,0.4c-0.4,0.4-0.4,0.9-0.4,1.3
		c0,0.3,0,0.8,0.4,1.2c0.3,0.3,0.8,0.4,1.3,0.4h1v-3.2H487.3z"/>
	<path fill="#0066AC" d="M106.1,196.2c1.9,0,2.7,0.4,3.1,0.7c0.6,0.4,1.5,1.4,1.5,3.2c0,0.6-0.1,1.6-0.7,2.4
		c-0.2,0.2-0.6,0.7-1.4,0.9c0.9,0.2,1.4,0.8,1.6,1c0.6,0.7,0.9,1.7,0.9,2.7c0,1.1-0.5,2.3-1.2,3c-1.1,1.1-2.7,1.1-3.6,1.1h-5.8
		v-15.1H106.1z M104.9,202.2c0.5,0,1.2,0,1.8-0.4c0.6-0.4,0.6-1,0.6-1.4c0-0.5-0.1-1-0.6-1.4c-0.5-0.4-1.1-0.4-1.6-0.4h-1.3v3.6
		H104.9z M105.4,208.8c0.6,0,1.3,0,1.8-0.5c0.4-0.4,0.5-1.1,0.5-1.6c0-1-0.4-1.5-0.7-1.7c-0.5-0.3-1.1-0.4-1.6-0.4h-1.6v4.1H105.4z"
		/>
	<path fill="#0066AC" d="M125.8,204.3c0-0.7-0.1-1.2-0.3-1.5c-0.3-0.4-0.7-0.5-0.9-0.5c-0.3,0-0.8,0.1-1.1,0.7
		c-0.2,0.3-0.4,1-0.4,2.7c0,1.3,0.1,2.1,0.5,2.7c0.2,0.4,0.5,0.6,1,0.6c0.4,0,0.7-0.1,0.9-0.5c0.2-0.3,0.3-0.7,0.4-1.7l2.9,0.2
		c0,0.6-0.3,2.1-1.1,3.1c-0.6,0.6-1.6,1.3-3.2,1.3c-1.7,0-2.7-0.7-3.2-1.3c-1.2-1.3-1.4-3.3-1.4-4.5c0-1.2,0.1-3.2,1.4-4.6
		c1.1-1.1,2.4-1.3,3.3-1.3c0.9,0,2,0.1,2.9,1.2c0.8,0.9,1.2,2.1,1.2,3.2L125.8,204.3z"/>
	<path fill="#0066AC" d="M139,201c1.3,1.4,1.4,3.5,1.4,4.6c0,1.2-0.1,3.3-1.4,4.6c-1,1.1-2.2,1.2-3.1,1.2s-2.1-0.1-3.1-1.2
		c-1.3-1.4-1.4-3.5-1.4-4.6c0-1.2,0.1-3.3,1.4-4.6c1-1.1,2.2-1.2,3.1-1.2S137.9,199.9,139,201z M134.9,202.5
		c-0.2,0.4-0.4,1.1-0.4,3.1c0,2.1,0.2,2.8,0.4,3.1c0.2,0.2,0.4,0.5,0.9,0.5c0.4,0,0.7-0.3,0.9-0.5c0.2-0.4,0.4-1.1,0.4-3.1
		c0-2.1-0.2-2.8-0.4-3.1c-0.2-0.2-0.4-0.5-0.9-0.5C135.4,202,135.1,202.3,134.9,202.5z"/>
	<path fill="#0066AC" d="M149.2,204.3c0-0.7-0.1-1.2-0.3-1.5c-0.3-0.4-0.7-0.5-0.9-0.5c-0.3,0-0.8,0.1-1.1,0.7
		c-0.2,0.3-0.4,1-0.4,2.7c0,1.3,0.1,2.1,0.5,2.7c0.2,0.4,0.5,0.6,1,0.6c0.4,0,0.7-0.1,0.9-0.5c0.2-0.3,0.3-0.7,0.4-1.7l2.9,0.2
		c0,0.6-0.3,2.1-1.1,3.1c-0.6,0.6-1.6,1.3-3.2,1.3c-1.7,0-2.7-0.7-3.2-1.3c-1.2-1.3-1.4-3.3-1.4-4.5c0-1.2,0.1-3.2,1.4-4.6
		c1.1-1.1,2.4-1.3,3.3-1.3c0.9,0,2,0.1,2.9,1.2c0.8,0.9,1.2,2.1,1.2,3.2L149.2,204.3z"/>
	<path fill="#0066AC" d="M160,211.3h-3.1v-8.8h-2.7V200h8.5v2.5H160V211.3z"/>
	<path fill="#0066AC" d="M164.7,203.3c0.1-0.9,0.6-1.7,1.1-2.2c0.6-0.6,1.7-1.3,3.5-1.3c0.9,0,1.8,0.1,2.6,0.7
		c1.3,0.9,1.3,2,1.3,3.8v4.5c0,1.7,0.1,2.1,0.2,2.5h-2.9c-0.2-0.7-0.2-1.5-0.2-1.7c-0.2,0.4-0.5,0.8-0.8,1.1
		c-0.5,0.5-1.3,0.8-2.2,0.8c-0.7,0-1.5-0.2-2.1-0.8c-0.4-0.4-0.9-1.1-0.9-2.4c0-0.8,0.2-1.6,0.7-2.3c0.7-0.9,1.7-1.2,2.3-1.4
		c0.9-0.2,1.8-0.3,2.8-0.4v-0.9c0-0.4,0-0.8-0.3-1.1c-0.2-0.2-0.4-0.4-0.9-0.4c-0.5,0-0.8,0.3-1,0.6c-0.1,0.2-0.2,0.4-0.3,1.1
		L164.7,203.3z M170.1,205.9l-0.4,0.1c-0.9,0.2-1.5,0.4-1.8,0.9c-0.2,0.4-0.3,0.8-0.3,1.2c0,0.3,0.1,0.6,0.3,0.9
		c0.2,0.3,0.5,0.4,0.8,0.4c0.8,0,1-0.5,1.2-1c0.2-0.7,0.3-1.3,0.3-2V205.9z"/>
	<path fill="#0066AC" d="M182.1,200c0.7,0,1.6,0.1,2.2,0.6c0.4,0.4,0.9,1,0.9,2.1c0,0.6-0.1,1.2-0.6,1.8c-0.2,0.3-0.6,0.6-1.2,0.7v0
		c0.8,0.1,1.3,0.5,1.6,0.8c0.5,0.6,0.6,1.3,0.6,2c0,0.7-0.1,1.7-1,2.4c-0.6,0.5-1.3,0.7-2.1,0.7h-5.7V200H182.1z M179.9,204.6h0.9
		c0.3,0,0.8,0,1.1-0.4c0.2-0.3,0.3-0.8,0.3-1c0-0.5-0.1-0.9-0.4-1.1c-0.3-0.3-0.7-0.3-1-0.3h-0.9V204.6z M179.9,209.5h1.2
		c0.4,0,0.9,0,1.2-0.5c0.2-0.2,0.3-0.7,0.3-1.1c0-0.5-0.2-0.9-0.4-1.2c-0.2-0.2-0.6-0.4-1.1-0.4h-1.1V209.5z"/>
	<path fill="#0066AC" d="M191.8,206.2c0,1.6,0.1,2.3,0.3,2.6c0.3,0.5,0.8,0.6,1.2,0.6c0.3,0,0.8,0,1.1-0.5c0.3-0.4,0.4-1.1,0.4-1.5
		l2.8,0.2c-0.2,0.8-0.5,1.9-1.2,2.6c-1,1.1-2.4,1.3-3.3,1.3c-0.9,0-2.1-0.2-3.2-1.2c-1-1-1.5-2.7-1.5-4.5c0-1.7,0.4-3.5,1.4-4.6
		c0.6-0.6,1.6-1.3,3.2-1.3c1.8,0,2.9,0.9,3.7,2c0.9,1.5,0.9,3.5,0.8,4.3H191.8z M194.8,204.4c0-0.9-0.1-1.5-0.4-1.9
		c-0.2-0.3-0.6-0.5-1.1-0.5c-0.4,0-0.8,0.2-1.1,0.6c-0.3,0.4-0.3,1-0.4,1.8H194.8z"/>
	<path fill="#0066AC" d="M214.8,200v2.5h-4v8.8h-3.1V200H214.8z"/>
	<path fill="#0066AC" d="M220.3,200v1.7c0.2-0.6,0.6-1.1,1-1.3c0.4-0.3,1-0.5,1.7-0.5c0.7,0,1.5,0.3,2,0.8c1.1,0.9,1.5,2.8,1.5,4.8
		c0,1.8-0.3,3.9-1.3,5c-0.5,0.5-1.3,1.1-2.5,1.1c-0.5,0-0.9-0.1-1.3-0.3c-0.3-0.2-0.5-0.4-0.8-0.6v4.6h-3.1v-15H220.3z M220.5,207.5
		c0,1,0.2,1.4,0.4,1.5c0.3,0.3,0.7,0.4,0.9,0.4c0.4,0,0.7,0,1-0.5c0.3-0.5,0.4-1.4,0.4-3.4c0-1.5,0-2.4-0.4-3
		c-0.3-0.4-0.6-0.5-0.9-0.5c-0.6,0-0.9,0.2-1.2,0.7c-0.2,0.5-0.3,1-0.3,1.5V207.5z"/>
	<path fill="#0066AC" d="M231.4,200l1.5,6.9l1.5-6.9h2.8l-3.4,11.4c-0.4,1.3-0.7,2.2-1.2,2.9c-0.7,0.9-1.5,1.1-2.3,1.1
		c-0.6,0-1.1-0.1-1.5-0.2v-2.6c0.4,0.1,0.6,0.1,0.9,0.1c0.5,0,1,0,1.4-0.5c0.2-0.2,0.3-0.5,0.4-0.8l-3.3-11.3H231.4z"/>
	<path fill="#0066AC" d="M248,200v11.2h-3.1v-8.8h-2.4v8.8h-3.1V200H248z"/>
	<path fill="#0066AC" d="M260.3,200v11.2h-3.1v-8.8h-2.4v8.8h-3.1V200H260.3z"/>
	<path fill="#0066AC" d="M267,204.2h1.5c0.9,0,2.2,0.1,3,1c0.8,0.8,0.9,1.9,0.9,2.5c0,0.7-0.1,1.8-1,2.7c-0.7,0.6-1.7,0.9-2.5,0.9
		H264V200h3V204.2z M267,209.1h0.8c0.3,0,0.8,0,1.1-0.4c0.4-0.4,0.4-0.8,0.4-1.1c0-0.4,0-0.9-0.5-1.2c-0.4-0.3-0.7-0.3-1.1-0.3H267
		V209.1z M276.3,200v11.2h-3V200H276.3z"/>
	<path fill="#0066AC" d="M288.7,209.4l-2.3-4l2.3-3.9h1.7l-1.4,3.9l1.4,4L288.7,209.4z M292.6,209.4l-2.3-4l2.3-3.9h1.6l-1.4,3.9
		l1.4,4L292.6,209.4z"/>
	<path fill="#0066AC" d="M303.8,196.2l4.3,15.1h-3.4l-0.7-3.1h-4.2l-0.7,3.1H296l4.5-15.1H303.8z M301.9,199.4l-1.5,6.1h3
		L301.9,199.4z"/>
	<path fill="#0066AC" d="M318.7,200v11.2h-3.1v-8.9h-1.7l0,1.5c0,1.2-0.2,3.2-0.3,4.4c-0.1,0.7-0.4,2.2-1.3,2.8
		c-0.4,0.3-1.2,0.5-1.8,0.5c-0.5,0-0.9-0.1-1.2-0.2v-2.4c1.1,0.2,1.4-0.6,1.6-1c0.2-0.5,0.4-1.4,0.5-4c0-0.7,0.1-1.9,0.1-2.3l0-1.6
		H318.7z"/>
	<path fill="#0066AC" d="M325.2,204.2h1.4c0.9,0,2.1,0.1,3,1c0.8,0.8,0.9,1.9,0.9,2.5c0,1.5-0.6,2.3-1,2.7c-0.6,0.6-1.6,0.9-2.5,0.9
		h-5V200h3.1V204.2z M325.2,209.1h0.7c0.2,0,0.7,0,1.1-0.4c0.4-0.4,0.4-0.8,0.4-1.1c0-0.7-0.3-1-0.4-1.2c-0.3-0.3-0.7-0.3-1.1-0.3
		h-0.8V209.1z"/>
	<path fill="#0066AC" d="M340.9,200c1.7,0,3,0.7,3.7,1.4c1.2,1.2,1.4,2.9,1.4,4.1c0,2.5-0.8,3.8-1.4,4.4c-1.1,1.1-2.7,1.3-3.7,1.4
		v3.6h-2.9v-3.6c-1,0-2.6-0.3-3.7-1.4c-0.8-0.8-1.4-2.2-1.4-4.4c0-1.2,0.2-2.9,1.4-4.1c0.7-0.7,2-1.4,3.7-1.4v-3.9h2.9V200z
		 M337.8,202.2c-0.9,0-1.5,0.5-1.8,1.2c-0.1,0.3-0.3,0.8-0.3,2.2c0,1.4,0.2,2,0.3,2.3c0.3,0.7,0.9,1.2,1.8,1.2h0.2v-6.9H337.8z
		 M340.7,209.1h0.2c0.9,0,1.5-0.5,1.8-1.2c0.1-0.4,0.3-0.9,0.3-2.3c0-1.4-0.2-2-0.3-2.2c-0.3-0.7-0.9-1.2-1.8-1.2h-0.2V209.1z"/>
	<path fill="#0066AC" d="M348.8,203.3c0.1-0.9,0.5-1.7,1.1-2.2c0.6-0.6,1.7-1.3,3.5-1.3c0.9,0,1.8,0.1,2.6,0.7
		c1.3,0.9,1.3,2,1.3,3.8v4.5c0,1.7,0.1,2.1,0.2,2.5h-2.9c-0.2-0.7-0.2-1.5-0.2-1.7c-0.2,0.4-0.5,0.8-0.8,1.1
		c-0.5,0.5-1.3,0.8-2.2,0.8c-0.7,0-1.5-0.2-2.1-0.8c-0.4-0.4-0.9-1.1-0.9-2.4c0-0.8,0.2-1.6,0.7-2.3c0.7-0.9,1.7-1.2,2.3-1.4
		c0.9-0.2,1.8-0.3,2.8-0.4v-0.9c0-0.4,0-0.8-0.3-1.1c-0.2-0.2-0.4-0.4-0.9-0.4c-0.6,0-0.8,0.3-1,0.6c-0.1,0.2-0.2,0.4-0.3,1.1
		L348.8,203.3z M354.2,205.9l-0.4,0.1c-0.9,0.2-1.5,0.4-1.8,0.9c-0.2,0.4-0.3,0.8-0.3,1.2c0,0.3,0.1,0.6,0.3,0.9
		c0.2,0.3,0.5,0.4,0.8,0.4c0.8,0,1-0.5,1.2-1c0.2-0.7,0.3-1.3,0.3-2V205.9z"/>
	<path fill="#0066AC" d="M371.5,206c-0.2,1.6-0.6,3-1.5,4c-1.2,1.3-2.8,1.5-3.7,1.5c-1.8,0-2.9-0.7-3.7-1.4c-1.4-1.4-2-3.9-2-6.3
		c0-2.3,0.5-5,2.1-6.5c1.3-1.2,2.8-1.3,3.6-1.3c0.8,0,2.2,0.1,3.4,1.2c1.1,1,1.7,2.6,1.7,4.6l-3,0.2c0-0.9-0.1-2-0.8-2.8
		c-0.3-0.4-0.8-0.6-1.4-0.6c-0.6,0-1,0.3-1.3,0.6c-0.8,0.9-0.9,3.2-0.9,4.6c0,2.6,0.4,3.6,0.7,4c0.4,0.6,0.9,0.8,1.6,0.8
		c0.6,0,1-0.2,1.4-0.8c0.4-0.6,0.6-1.3,0.7-2.2L371.5,206z"/>
	<path fill="#0066AC" d="M379.1,211.3h-3.1v-8.8h-2.7V200h8.5v2.5h-2.7V211.3z"/>
	<path fill="#0066AC" d="M387.1,200v1.7c0.2-0.6,0.6-1.1,1-1.3c0.4-0.3,1-0.5,1.7-0.5c0.7,0,1.5,0.3,2,0.8c1.1,0.9,1.5,2.8,1.5,4.8
		c0,1.8-0.3,3.9-1.3,5c-0.5,0.5-1.3,1.1-2.5,1.1c-0.5,0-0.9-0.1-1.3-0.3c-0.3-0.2-0.6-0.4-0.8-0.6v4.6h-3.1v-15H387.1z M387.3,207.5
		c0,1,0.2,1.4,0.4,1.5c0.3,0.3,0.7,0.4,0.9,0.4c0.4,0,0.7,0,1-0.5c0.3-0.5,0.4-1.4,0.4-3.4c0-1.5,0-2.4-0.4-3
		c-0.3-0.4-0.6-0.5-0.9-0.5c-0.6,0-0.9,0.2-1.2,0.7c-0.2,0.5-0.3,1-0.3,1.5V207.5z"/>
	<path fill="#0066AC" d="M396.2,203.3c0.1-0.9,0.5-1.7,1.1-2.2c0.6-0.6,1.7-1.3,3.5-1.3c0.9,0,1.8,0.1,2.6,0.7
		c1.3,0.9,1.3,2,1.3,3.8v4.5c0,1.7,0.1,2.1,0.2,2.5H402c-0.2-0.7-0.2-1.5-0.2-1.7c-0.2,0.4-0.5,0.8-0.8,1.1
		c-0.5,0.5-1.3,0.8-2.2,0.8c-0.7,0-1.5-0.2-2.1-0.8c-0.4-0.4-0.9-1.1-0.9-2.4c0-0.8,0.2-1.6,0.7-2.3c0.7-0.9,1.7-1.2,2.3-1.4
		c0.9-0.2,1.8-0.3,2.8-0.4v-0.9c0-0.4,0-0.8-0.3-1.1c-0.2-0.2-0.4-0.4-0.9-0.4c-0.6,0-0.8,0.3-1,0.6c-0.1,0.2-0.2,0.4-0.3,1.1
		L396.2,203.3z M401.6,205.9l-0.4,0.1c-0.9,0.2-1.5,0.4-1.8,0.9c-0.2,0.4-0.3,0.8-0.3,1.2c0,0.3,0.1,0.6,0.3,0.9
		c0.2,0.3,0.5,0.4,0.8,0.4c0.8,0,1-0.5,1.2-1c0.2-0.7,0.3-1.3,0.3-2V205.9z"/>
	<path fill="#0066AC" d="M410.3,200l1.2,2.6l1.5-2.6h2.7l-2.9,5l3.3,6.2h-3.4l-1.6-3.4l-1.9,3.4h-2.7l3.3-5.7l-2.9-5.5H410.3z"/>
	<path fill="#0066AC" d="M424.9,201c1.3,1.4,1.4,3.5,1.4,4.6c0,1.2-0.1,3.3-1.4,4.6c-1,1.1-2.2,1.2-3.1,1.2c-1,0-2.1-0.1-3.1-1.2
		c-1.3-1.4-1.4-3.5-1.4-4.6c0-1.2,0.1-3.3,1.4-4.6c1-1.1,2.2-1.2,3.1-1.2C422.8,199.8,423.9,199.9,424.9,201z M420.9,202.5
		c-0.2,0.4-0.4,1.1-0.4,3.1c0,2.1,0.2,2.8,0.4,3.1c0.2,0.2,0.4,0.5,0.9,0.5c0.4,0,0.7-0.3,0.9-0.5c0.2-0.4,0.4-1.1,0.4-3.1
		c0-2.1-0.2-2.8-0.4-3.1c-0.2-0.2-0.4-0.5-0.9-0.5C421.3,202,421.1,202.3,420.9,202.5z"/>
	<path fill="#0066AC" d="M434.5,200c0.7,0,1.6,0.1,2.2,0.6c0.4,0.4,0.9,1,0.9,2.1c0,0.6-0.1,1.2-0.6,1.8c-0.2,0.3-0.6,0.6-1.2,0.7v0
		c0.8,0.1,1.3,0.5,1.6,0.8c0.5,0.6,0.6,1.3,0.6,2c0,0.7-0.1,1.7-1,2.4c-0.6,0.5-1.3,0.7-2.1,0.7h-5.7V200H434.5z M432.3,204.6h0.9
		c0.3,0,0.8,0,1.1-0.4c0.2-0.3,0.3-0.8,0.3-1c0-0.5-0.1-0.9-0.4-1.1c-0.3-0.3-0.7-0.3-1-0.3h-0.9V204.6z M432.3,209.5h1.2
		c0.4,0,0.9,0,1.2-0.5c0.2-0.2,0.3-0.7,0.3-1.1c0-0.5-0.2-0.9-0.4-1.2c-0.2-0.2-0.6-0.4-1.1-0.4h-1.1V209.5z"/>
	<path fill="#0066AC" d="M441.2,203.3c0.1-0.9,0.6-1.7,1.1-2.2c0.6-0.6,1.7-1.3,3.5-1.3c0.9,0,1.8,0.1,2.6,0.7
		c1.3,0.9,1.3,2,1.3,3.8v4.5c0,1.7,0.1,2.1,0.2,2.5H447c-0.2-0.7-0.2-1.5-0.2-1.7c-0.2,0.4-0.5,0.8-0.8,1.1
		c-0.5,0.5-1.3,0.8-2.2,0.8c-0.7,0-1.5-0.2-2.1-0.8c-0.4-0.4-0.9-1.1-0.9-2.4c0-0.8,0.2-1.6,0.7-2.3c0.7-0.9,1.7-1.2,2.3-1.4
		c0.9-0.2,1.8-0.3,2.8-0.4v-0.9c0-0.4,0-0.8-0.3-1.1c-0.2-0.2-0.4-0.4-0.9-0.4c-0.6,0-0.8,0.3-1,0.6c-0.1,0.2-0.2,0.4-0.3,1.1
		L441.2,203.3z M446.6,205.9l-0.4,0.1c-0.9,0.2-1.5,0.4-1.8,0.9c-0.2,0.4-0.3,0.8-0.3,1.2c0,0.3,0.1,0.6,0.3,0.9
		c0.2,0.3,0.5,0.4,0.8,0.4c0.8,0,1-0.5,1.2-1c0.2-0.7,0.3-1.3,0.3-2V205.9z"/>
	<path fill="#0066AC" d="M458.8,204.2V200h3.1v11.2h-3.1v-4.6h-2.5v4.6h-3.1V200h3.1v4.1H458.8z"/>
	<path fill="#0066AC" d="M468.3,200v5.2c0,0.1,0,0.4-0.1,1.4c0.3-0.6,0.4-0.9,0.5-1.2l2.5-4.8V200h2.9v11.2h-2.9v-5.4
		c0-0.4,0-0.6,0.1-1.4c-0.2,0.4-0.4,0.9-0.5,1.2l-2.5,4.7v0.9h-2.9V200H468.3z"/>
	<path fill="#0066AC" d="M480.3,206.2c0,1.6,0.1,2.3,0.3,2.6c0.3,0.5,0.8,0.6,1.2,0.6c0.3,0,0.8,0,1.1-0.5c0.3-0.4,0.4-1.1,0.4-1.5
		l2.8,0.2c-0.2,0.8-0.5,1.9-1.2,2.6c-1,1.1-2.4,1.3-3.3,1.3c-0.9,0-2.1-0.2-3.2-1.2c-1-1-1.5-2.7-1.5-4.5c0-1.7,0.4-3.5,1.4-4.6
		c0.6-0.6,1.6-1.3,3.2-1.3c1.8,0,2.9,0.9,3.7,2c0.9,1.5,0.9,3.5,0.8,4.3H480.3z M483.2,204.4c0-0.9-0.1-1.5-0.4-1.9
		c-0.2-0.3-0.6-0.5-1.1-0.5c-0.4,0-0.8,0.2-1.1,0.6c-0.3,0.4-0.3,1-0.4,1.8H483.2z"/>
	<path fill="#0066AC" d="M490.7,201.5l2.3,3.9l-2.3,4h-1.6l1.4-4l-1.4-4L490.7,201.5z M494.6,201.5l2.3,3.9l-2.3,4h-1.7l1.4-4
		l-1.4-4L494.6,201.5z"/>
</g>
<g>
	<g>
		<path fill-rule="evenodd" clip-rule="evenodd" fill="#E41937" d="M23.8,10.3c-1.6,0-2.8,0.7-3.8,2.3c-1,1.6-1.6,3.9-1.6,6.8
			c0,3.2,0.5,5.6,1.5,7.2c0.9,1.5,2.2,2.3,3.8,2.3c1.4,0,2.7-0.7,3.7-2.2c1-1.4,1.7-3.8,2.5-7.8c-0.6-3-1.5-5.3-2.6-6.7
			C26.3,10.9,25.2,10.3,23.8,10.3z"/>
		<path fill-rule="evenodd" clip-rule="evenodd" fill="#E41937" d="M33.7,0H17.9C11.5,0,6.3,5.2,6.3,11.6v15.8
			c0,6.4,5.2,11.6,11.6,11.6h15.8c6.4,0,11.6-5.2,11.6-11.6V11.6C45.3,5.2,40.1,0,33.7,0z M40.9,25.5c0,2-0.2,3.3-0.8,4.3
			c-0.6,1.1-1.9,1.8-3.3,1.8c-1.3,0-2.5-0.6-3.4-1.8c-0.5-0.7-0.9-1.6-1.3-3c-1,1.4-2.1,2.4-3.2,3.2c-1.8,1.2-3.7,1.8-5.7,1.8
			c-3.5,0-6.1-1.1-8.4-3.5c-2.1-2.3-3.2-5.4-3.2-9.1c0-3.3,1.1-6.4,3.3-8.7C17,8.2,19.8,7,23,7c2.3,0,4.3,0.8,5.9,2.3
			c0.9,0.9,1.8,2.2,2.3,3.3c0,0.1,0.1,0.1,0.1,0.2c0.5-2.5,1.1-5.3,1.1-5.3h6.4c0,0-3.4,11.9-4.5,15.6c0.4,1.1,0.8,1.7,1.2,2.1
			c0.4,0.4,0.8,0.6,1.3,0.6c0.7,0,1.1-0.7,1.2-1.4l0-0.2h2.8V25.5z"/>
	</g>
	<g>
		<path fill-rule="evenodd" clip-rule="evenodd" fill="#E41937" d="M75.3,13.3c-0.9-4.1-3.5-7.1-9.3-7.1c-5.4,0-8.4,2.9-9.3,7.1
			l-4.2,18.8H57c1,0,2-0.8,2.3-1.8l0.8-3.8h11.8l0.8,3.8c0.2,1,1.2,1.8,2.2,1.8h4.5L75.3,13.3L75.3,13.3z M61.2,21.1l1.5-6.7
			c0.2-1.1,1.1-2.7,3.3-2.7c2.2,0,3,1.6,3.3,2.7l1.5,6.7H61.2z"/>
		<path fill-rule="evenodd" clip-rule="evenodd" fill="#E41937" d="M90.5,12.5h10v19.6h6.2V6.8H88c-2,0-3.7,1.7-3.7,3.7v12.8
			c0,1.7-0.8,2.8-2.2,3.1l-1.3,0.3l1.1,5.4h1.2c4.2,0,7.3-3.1,7.3-8.5V12.5z"/>
		<path fill-rule="evenodd" clip-rule="evenodd" fill="#E41937" d="M160.2,6.8h-2.2V3.9h-4.3c-1,0-1.9,0.8-1.9,1.8v1.1h-2.2
			c-7.6,0-12.4,5.2-12.4,12.6c0,7.4,4.8,12.6,12.4,12.6h2.2v3.1h4.3c1,0,1.9-0.8,1.9-1.8v-1.2h2.2c7.6,0,12.4-5.2,12.4-12.6
			C172.5,12,167.8,6.8,160.2,6.8L160.2,6.8z M149.5,26.5c-4.2,0-6.2-2.7-6.2-7.1c0-4.4,2-7,6.2-7h2.2v14.1H149.5L149.5,26.5z
			 M160.2,26.5h-2.2V12.4h2.2c4.2,0,6.2,2.7,6.2,7C166.4,23.8,164.4,26.5,160.2,26.5z"/>
		<path fill-rule="evenodd" clip-rule="evenodd" fill="#E41937" d="M125.7,13.2h-8.8V6.8h-6.2v23.4c0,1,0.8,1.8,1.9,1.8h13.2
			c5.4,0,9.4-4,9.4-9.4C135.1,17.3,131.7,13.2,125.7,13.2L125.7,13.2z M125.7,26.4h-8.8v-7.5h8.8c1.5,0,3.3,1.3,3.3,3.8
			C129,25,127.2,26.4,125.7,26.4z"/>
		<path fill-rule="evenodd" clip-rule="evenodd" fill="#E41937" d="M195.5,13.3c-0.9-4.1-3.5-7.1-9.3-7.1c-5.4,0-8.4,2.9-9.3,7.1
			l-4.2,18.8h4.5c1,0,2-0.8,2.2-1.8l0.8-3.8h11.8l0.8,3.8c0.2,1,1.2,1.8,2.2,1.8h4.5L195.5,13.3L195.5,13.3z M181.5,21.1l1.5-6.7
			c0.2-1.1,1.1-2.7,3.3-2.7c2.2,0,3,1.6,3.3,2.7l1.5,6.7H181.5z"/>
		<path fill-rule="evenodd" clip-rule="evenodd" fill="#E41937" d="M378.9,19c1.1-1.1,1.8-2.5,1.8-4.5c0-4.5-3.5-7.6-7.9-7.6h-15.1
			c-1,0-1.9,0.8-1.9,1.8v21.6c0,1,0.8,1.9,1.9,1.9l16,0c4.7,0,7.9-3.4,7.9-7.9C381.5,22,380.5,20.2,378.9,19L378.9,19z M372.7,12
			c0.8,0,1.9,0.9,1.9,2.5c0,1.6-1.1,2.4-1.9,2.5h-10.9v-5H372.7L372.7,12z M373.2,26.8h-11.4v-5h11.4c0.8,0.1,1.9,0.9,1.9,2.5
			C375.1,25.9,374,26.8,373.2,26.8z"/>
		<path fill-rule="evenodd" clip-rule="evenodd" fill="#E41937" d="M338.2,6.2c-7.6,0-12.9,5.4-12.9,13.2c0,7.8,5.3,13.2,12.9,13.2
			h2.1c7.6,0,12.9-5.4,12.9-13.2c0-7.8-5.3-13.2-12.9-13.2H338.2L338.2,6.2z M331.9,19.4c0-4.5,2.4-8,6.7-8h1.4c4.2,0,6.7,3.5,6.7,8
			c0,4.5-2.4,8-6.7,8h-1.4C334.3,27.4,331.9,24,331.9,19.4z"/>
		<path fill-rule="evenodd" clip-rule="evenodd" fill="#E41937" d="M223.1,6.8l0.8,3.8c0.2,1,1.2,1.8,2.2,1.8h5.7v19.6h6.2V12.5h5.6
			c1,0,2-0.8,2.2-1.8l0.8-3.8H223.1z"/>
		<polygon fill-rule="evenodd" clip-rule="evenodd" fill="#E41937" points="430.8,6.8 430.8,16.8 418.8,16.8 418.8,6.8 412.6,6.8 
			412.6,32.1 418.8,32.1 418.8,22.2 430.8,22.2 430.8,32.1 436.9,32.1 436.9,6.8 		"/>
		<path fill-rule="evenodd" clip-rule="evenodd" fill="#E41937" d="M294.9,13.3c-0.9-4.2-3.5-7.1-9.3-7.1c-5.4,0-8.4,2.9-9.3,7.1
			l-4.2,18.8h4.5c1,0,2-0.8,2.3-1.8l0.8-3.8h11.8l0.8,3.8c0.2,1,1.2,1.8,2.2,1.8h4.5L294.9,13.3L294.9,13.3z M280.8,21.1l1.5-6.7
			c0.2-1.1,1.1-2.7,3.3-2.7c2.2,0,3,1.7,3.3,2.7l1.5,6.7H280.8z"/>
		<path fill-rule="evenodd" clip-rule="evenodd" fill="#E41937" d="M405.7,13.3c-0.9-4.2-3.5-7.1-9.3-7.1c-5.4,0-8.4,2.9-9.3,7.1
			l-4.2,18.8h4.5c1,0,2-0.8,2.2-1.8l0.8-3.8h11.8l0.8,3.8c0.2,1,1.2,1.8,2.2,1.8h4.5L405.7,13.3L405.7,13.3z M391.7,21.1l1.5-6.7
			c0.2-1.1,1.1-2.7,3.3-2.7c2.2,0,3,1.7,3.3,2.7l1.5,6.7H391.7z"/>
		<path fill-rule="evenodd" clip-rule="evenodd" fill="#E41937" d="M225,32L225,32l-12,0.1c-7.3,0-12.4-5.2-12.4-12.6
			c0-7.4,5.1-12.6,12.4-12.6h9.1l-0.9,3.9c-0.2,1-1.3,1.8-2.3,1.8h-6c-3.9,0-6.2,2.9-6.2,7c0,4,2.3,7,6.2,7h8.9c1,0,2,0.8,2.3,1.8
			L225,32z"/>
		<path fill-rule="evenodd" clip-rule="evenodd" fill="#E41937" d="M263.2,6.8l-13.2,0c-1,0-1.8,0.8-1.8,1.8v23.4h6.2v-6.4h8.8
			c6,0,9.4-4.1,9.4-9.4S268.6,6.8,263.2,6.8L263.2,6.8z M263.2,20h-8.8v-7.5h8.8c1.5,0,3.3,1.3,3.3,3.8
			C266.5,18.6,264.7,20,263.2,20z"/>
		<path fill-rule="evenodd" clip-rule="evenodd" fill="#E41937" d="M489.2,26.7h-13.3v-4.8h14.4V17h-14.4v-4.9h13.3
			c1.1,0,2-0.5,2.3-1.8l0.8-3.5h-20.7c-1,0-1.9,0.8-1.9,1.8v21.6c0,1,0.8,1.9,1.9,1.9h20.7l-0.8-3.5
			C491.2,27.2,490.3,26.7,489.2,26.7z"/>
		<path fill-rule="evenodd" clip-rule="evenodd" fill="#E41937" d="M441.2,32.1V6.8h6.2v16.7L458,8.3c0.6-0.8,1.9-1.5,2.9-1.5h4.6
			v25.3h-6.2V15.4l-10.7,15.2c-0.6,0.8-1.9,1.5-2.9,1.5H441.2z"/>
		<path fill-rule="evenodd" clip-rule="evenodd" fill="#E41937" d="M317.6,19.3l8.6-12.5h-5.7c-1.2,0-2.1,0.4-2.8,1.6l-4.6,7.2h-0.8
			l-4.6-7.2c-0.8-1.2-1.6-1.6-2.8-1.6h-5.8l8.8,12.8l-8.6,12.5h5.7c1.2,0,2.1-0.4,2.8-1.6l4.6-7.2h0.8l4.6,7.2
			c0.8,1.2,1.6,1.6,2.8,1.6h5.8L317.6,19.3z"/>
	</g>
</g>
</svg>
