<?xml version="1.0" encoding="utf-8"?>
<!-- Generator: Adobe Illustrator 19.0.1, SVG Export Plug-In . SVG Version: 6.00 Build 0)  -->
<svg version="1.1" id="Слой_1" xmlns="http://www.w3.org/2000/svg" xmlns:xlink="http://www.w3.org/1999/xlink" x="0px" y="0px"
	 width="362.8px" height="102.9px" viewBox="0 0 362.8 102.9" enable-background="new 0 0 362.8 102.9" xml:space="preserve">
<path fill-rule="evenodd" clip-rule="evenodd" fill="#FFFFFF" d="M80.8,78.7l-2.1,0.1c0-1.3-0.5-2-1.4-2c-1,0-1.5,1-1.5,3.1
	c0,1.2,0.1,2,0.4,2.4c0.3,0.4,0.7,0.6,1.2,0.6c0.8,0,1.3-0.6,1.5-1.8l1.9,0.1c-0.1,1.1-0.5,2-1.1,2.6c-0.6,0.6-1.4,0.9-2.3,0.9
	c-1.1,0-2-0.4-2.7-1.3c-0.7-0.9-1-2-1-3.6c0-1.4,0.3-2.6,1-3.5c0.7-0.9,1.6-1.4,2.8-1.4C79.4,75,80.5,76.2,80.8,78.7L80.8,78.7z
	 M0,25.4L0,80c0,13.7,25.4,13.8,29.1,22.9c3.7-9.1,29.2-9.2,29.2-22.9l0-54.6H0L0,25.4z M2.8,28.5h52.9l0,49.3
	c0,12.4-23.1,12.2-26.4,20.5C25.9,90,2.8,90.1,2.8,77.8L2.8,28.5L2.8,28.5z M29.3,2.5c1.9,0,4.7,0.8,6.1,2c1.7,1.5,3.3,1.4,4.4,0.1
	c1.7-1.9,4-1.4,5-0.1c1.5,2.1,3.9,1.6,5.5,1.3c3.1-0.5,4.5,1.6,1.8,4.5c-3.3,3.5-6.4,6.9-9.7,10.4l-13,0l-13,0
	c-3.3-3.5-6.7-6.9-10-10.4C3.9,7.6,5.2,5.5,8.3,6c1.6,0.3,4,0.8,5.5-1.3c1-1.4,3.3-1.8,5,0.1c1.1,1.2,2.6,1.3,4.4-0.1
	C24.6,3.4,27.4,2.5,29.3,2.5L29.3,2.5z M29.3,0c-2.3,0-4.2,0.5-6,1.9c-2.1,1.8-3.8,1.1-5.1-0.4c-1-1.2-4.3-0.9-5.5,0.7
	C10.9,4.8,8,4,6,3.8c-2.6-0.2-4.8,3.7-2.7,6l12,12.8l14,0h14l12-12.8c2.1-2.2,0-6.2-2.7-6c-2,0.2-4.9,1-6.7-1.6
	c-1.2-1.7-4.5-1.9-5.5-0.7c-1.3,1.5-3,2.2-5.1,0.4C33.6,0.5,31.6,0,29.3,0L29.3,0z M30.6,16.3c-0.3,0.3-2.2,0.3-2.5,0l-3.4-3.4
	c-0.3-0.3,0.2-0.6,0.6-0.9l2.1-1.5c0.4-0.3,0.5-0.6,0.2-0.9l-0.9-1c-0.4-0.4-0.8-0.2-1.2,0.1l-2.2,1.3c-0.5,0.3-0.8,0.2-1.1-0.1
	l-2-1.8c-0.5-0.5-1.1-0.7-1.7-0.7l-1.3,0c-0.7,0-1,0.5-0.3,1.2l7.3,7.2c0.2,0.2,0.2,0.5,0,0.5l-2.5,0c-0.4,0-0.7-0.1-1-0.4l-8.3-8.2
	c-0.2-0.2-0.5-0.3-0.9-0.3l-2.1,0c-0.6,0-0.4,0.7,0,1.1l10,10l10.2,0l10.2,0l10-10c0.4-0.4,0.6-1.1,0-1.1l-2.1,0
	c-0.4,0-0.6,0-0.9,0.3L38.2,16c-0.3,0.3-0.6,0.4-1,0.4l-2.5,0c-0.2,0-0.2-0.3,0-0.5l7.3-7.2c0.7-0.7,0.4-1.2-0.3-1.2l-1.3,0
	c-0.6,0-1.2,0.2-1.7,0.7l-2,1.8c-0.3,0.3-0.6,0.4-1.1,0.1l-2.2-1.3c-0.4-0.3-0.9-0.4-1.2-0.1l-0.9,1c-0.3,0.3-0.2,0.7,0.2,0.9
	l2.1,1.5c0.4,0.3,0.9,0.6,0.6,0.9L30.6,16.3L30.6,16.3z M44.9,44.9c-1.3,7-4.7,12.9-15.8,15.2L29,63.2c21-3.9,26.3-21.6,11.7-24.9
	c-2.4-0.5-5.9,0.5-9.4,1C28.5,42,26,43.2,23.8,42l-0.4-0.3c-0.6,0.3-2,1.3-2.6,1.3c-0.1,0-0.8,0-0.9,0l1-0.6c0,0-1.3,0.4-1.3,0.4
	c0-0.3,1.1-0.9,1.4-1c0.9-0.1,1.4-0.3,2.2-0.6l0.1-0.5c0.7-2.9,3.5-3.7,7.6-3c2.3-0.3,3.6-1.4,6-2.1c1.8-0.6,4.3-1.2,7-0.4
	c17.4,5.2,10.7,28.2-15,32.6l-0.3,8.7l0.2,0.1c10.7,3.2,10.8,6.6,8.5,9.8l0,0.2H14.4l0.1-1.7c3.2-0.7,6.2-1.8,9.1-4L23.5,78
	c-0.8-0.2-1.6-0.4-2.5-0.7c-6.3-1.8-10.1-8,2.2-12.6l-0.1-4.5c-8.6-1.5-13.5-7.1-15.8-15.5C19.9,44.9,32.4,44.9,44.9,44.9L44.9,44.9
	z M23.3,69.1l0.1,5.8C17.9,73,18.2,71,23.3,69.1L23.3,69.1z M37.2,86.1l0-1c-3-0.3-6.1-1.6-8.9-4.1l0.1-2.1l0.4,0
	c3,0.4,6.7,1,8.6,3.7c0.3,0.5,0.4,1.5,0.3,2.1L37.2,86.1L37.2,86.1z M83,28.1v10.6h4.9c0.6-4.1,2.2-7.4,4.8-9.9
	c2.6-2.5,5.9-3.8,10-3.8h0.4c4.8,0,8.4,1.6,10.8,4.8c2.4,3.2,3.7,6.7,3.8,10.5c0,0.1,0,0.2,0,0.3c0,0.1,0,0.2,0,0.3
	c0,4.2-1.3,7.9-3.8,11.1c-2.5,3.2-6.1,4.8-10.9,4.8l-0.4,0c-4.2,0-7.7-1.5-10.4-4.3c-2.7-2.9-4.2-6.6-4.3-11.3H83v12.6h3.1v2.6h-0.4
	H73.9v-2.6H77V28.1h-3.1v-2.6h0.4h11.8v2.6H83L83,28.1z M94.8,41c0,4.3,0.8,7.6,2.3,10c1.5,2.4,3.5,3.6,5.8,3.7
	c2-0.1,3.9-1.2,5.5-3.4c1.6-2.2,2.5-5.6,2.5-10.4c0-4.2-0.7-7.6-2.2-10c-1.5-2.5-3.4-3.7-5.7-3.8c-2.4,0.1-4.4,1.4-5.9,3.9
	C95.5,33.7,94.8,37,94.8,41L94.8,41z M120.6,53.9h3.1V28.1h-3.1v-2.6h0.4h19.8v6.2h-0.4h-2.6v-3.1h-8.2v25.3h3.4v2.6h-0.4h-12.1
	V53.9L120.6,53.9z M142.1,41c0-4,1.3-7.7,4-11c2.7-3.3,6.3-5,10.7-5h0.4c4.4,0,7.8,1.5,10.5,4.6c2.6,3.1,4.1,6.5,4.3,10.2
	c0,0.2,0,0.4,0,0.6c0,0.2,0,0.4,0,0.6c0,4-1.4,7.7-4.1,11c-2.7,3.3-6.3,5-10.8,5l-0.4,0c-4.4,0-7.8-1.6-10.4-4.7
	c-2.6-3.1-4-6.5-4.3-10.3c0-0.2,0-0.4,0-0.5C142.1,41.3,142.1,41.2,142.1,41L142.1,41z M149,41c0,4.7,0.8,8.1,2.5,10.3
	c1.7,2.2,3.5,3.3,5.5,3.4c2-0.1,3.9-1.2,5.6-3.4c1.7-2.2,2.5-5.6,2.5-10.3c0-4.2-0.8-7.6-2.3-10c-1.5-2.4-3.5-3.7-5.8-3.7
	c-2.4,0.1-4.4,1.4-5.9,3.9C149.7,33.7,149,37,149,41L149,41z M183.4,44.7v9.3h3.2v2.6h-0.4h-11.9v-2.6h3.1V28.1h-3.1v-2.6h0.4h9.9
	c0.6,0,1.2,0,1.8,0c0.6,0,1.3,0.1,2,0.2c1.9,0.3,3.6,1.1,5.2,2.4c1.6,1.3,2.4,3.5,2.4,6.7c0,2.6-0.8,4.9-2.4,6.9
	c-1.6,2-4.7,2.9-9.2,2.9c-0.1,0-0.2,0-0.2,0c-0.1,0-0.1,0-0.2,0c-0.1,0-0.2,0-0.2,0C183.6,44.7,183.5,44.7,183.4,44.7L183.4,44.7z
	 M183.4,28.1v14.2c0.1,0,0.1,0,0.2,0c0.1,0,0.1,0,0.2,0c0,0,0.1,0,0.1,0c0.1,0,0.1,0,0.2,0c0.3,0,0.6,0,0.9-0.1
	c0.3,0,0.6-0.1,0.9-0.3c1.1-0.3,2-1,2.9-2.1c0.9-1.1,1.3-2.9,1.3-5.3c0-2.1-0.4-3.6-1.3-4.5c-0.9-0.9-1.9-1.5-2.9-1.8
	c-0.3-0.1-0.6-0.1-0.9-0.2c-0.3,0-0.6-0.1-0.9-0.1c0,0-0.1,0-0.1,0c-0.1,0-0.1,0-0.2,0c0,0-0.1,0-0.1,0
	C183.5,28.1,183.5,28.1,183.4,28.1L183.4,28.1z M207.4,47.3l11.4-17.9v-1.2h-3.1v-2.6h0.4h11.8v2.6h-3.1v25.8h3.1v2.6h-0.4h-11.8
	v-2.6h3.1V34.2l-11.4,18v1.7h3.1v2.6h-0.4h-11.8v-2.6h3.1V28.1h-3.1v-2.6h0.4h11.8v2.6h-3.1V47.3L207.4,47.3z M252.7,28.1v25.8h3.1
	v2.6h-0.4h-11.8v-2.6h3.1V44c-0.1,0-0.1,0-0.2,0c-0.1,0-0.1,0-0.2,0c-0.1,0-0.1,0-0.2,0c-0.1,0-0.1,0-0.2,0c-0.9,0-1.6,0.3-2,0.7
	c-0.4,0.4-0.7,1-1,1.6c-0.1,0.1-0.1,0.2-0.1,0.3c0,0.1-0.1,0.2-0.1,0.3l-3.4,7.8c-0.2,0.5-0.5,0.9-0.9,1.2c-0.3,0.3-0.7,0.5-1.1,0.7
	c-0.4,0.2-0.8,0.3-1.2,0.3c-0.4,0-0.7,0.1-0.9,0.1l-0.4,0c-0.1,0-0.1,0-0.1,0c0,0-0.1,0-0.1,0c-0.7,0-1.4,0-2.1-0.1
	c-0.7-0.1-1.3-0.2-1.8-0.3c-0.1,0-0.2,0-0.3,0c-0.1,0-0.2,0-0.3,0v-2.6c0.8-0.1,1.5-0.2,2-0.4c0.5-0.2,0.9-0.6,1.3-1.1
	c0.2-0.2,0.3-0.5,0.5-0.8c0.1-0.3,0.3-0.6,0.5-1l2.4-5c0.2-0.5,0.5-0.9,0.7-1.3c0.2-0.3,0.5-0.6,0.7-0.8c0.2-0.2,0.4-0.3,0.7-0.4
	c0.2-0.1,0.5-0.2,0.7-0.2v-0.3c-2-0.5-3.4-1.3-4.4-2.6c-0.9-1.2-1.5-2.5-1.8-3.9c-0.1-0.3-0.1-0.6-0.1-0.8c0-0.3,0-0.6,0-0.8
	c0-0.2,0-0.4,0-0.7c0-0.2,0-0.5,0.1-0.7c0.3-1.9,1.2-3.7,2.7-5.3c1.5-1.6,3.8-2.4,6.7-2.4h0.4h12.5v2.6H252.7L252.7,28.1z
	 M246.7,28.1h-1.8c-1.4,0-2.6,0.6-3.5,1.7c-1,1.2-1.5,2.7-1.5,4.6c0,2.5,0.5,4.2,1.5,5.3c1,1.1,2.5,1.7,4.5,1.7c0.1,0,0.2,0,0.2,0
	c0.1,0,0.1,0,0.2,0c0.1,0,0.1,0,0.2,0c0.1,0,0.1,0,0.2,0V28.1L246.7,28.1z M259.7,47.7v-6.3h10.6v6.3H259.7L259.7,47.7z M289.9,46.6
	l9-21h0.4h8.6v2.6h-3.1v25.8h3.1v2.6h-0.4h-11.6v-2.6h3.1V32.8l-8.8,21h-0.4h-3l-8.9-21v21.1h3.1v2.6h-0.4h-8.3v-2.6h3.1V28.1h-3.1
	v-2.6h0.4h8.3L289.9,46.6L289.9,46.6z M311.1,53.9h3.1V28.1h-3.1v-2.6h0.4H332v6.1h-0.4h-2.1v-3h-9.3v10.1h7.8v-3.4h0.4h2v9.2h-0.4
	h-2v-3.2h-7.8v12h10.1v-3.5h0.4h2v6.6h-0.4h-21.3V53.9L311.1,53.9z M350.4,25.6l8.7,28.4h3l0,9l-1,0l-3.5,0v-6.3h-18.9l-0.1,6.4
	l-4.5,0v-9h3l8.3-25.8h-2.9v-2.6h0.4H350.4L350.4,25.6z M346.7,33.4l-6.4,20h12.3l-5.7-20.1l-0.1-0.8L346.7,33.4L346.7,33.4z
	 M89.3,75.2V77h-2.1v7.5h-2V77h-2.1v-1.9H89.3L89.3,75.2z M94.1,81.1v3.5h-2v-9.4h3.3c0.7,0,1.3,0.1,1.7,0.3c0.4,0.2,0.7,0.5,1,0.9
	c0.3,0.5,0.5,1,0.5,1.7c0,0.5-0.1,0.9-0.2,1.4c-0.2,0.4-0.4,0.8-0.7,1c-0.3,0.3-0.6,0.4-0.9,0.5c-0.3,0.1-0.7,0.1-1.3,0.1H94.1
	L94.1,81.1z M94.1,79.4h1.3c0.5,0,0.8-0.1,1-0.4c0.2-0.3,0.3-0.5,0.3-0.9c0-0.4-0.1-0.7-0.3-0.9c-0.2-0.2-0.6-0.3-1-0.3h-1.3V79.4
	L94.1,79.4z M105.3,75.2l2.6,9.4h-2.1l-0.5-1.9h-2.7l-0.5,1.9h-1.7l2.7-9.4H105.3L105.3,75.2z M103.1,80.9h1.8l-0.9-3.3L103.1,80.9
	L103.1,80.9z M117.2,75.2l-2.3,4.4l2.6,5h-2.3l-1.7-3.4l-1.7,3.4H110l2.6-5l-2.3-4.4h2.3l1.4,2.9l1.4-2.9H117.2L117.2,75.2z
	 M123.2,84.7c-1.1,0-2-0.5-2.6-1.4c-0.6-0.9-0.9-2.1-0.9-3.5c0-1.4,0.3-2.5,0.9-3.4c0.6-0.9,1.5-1.4,2.7-1.4c1.2,0,2.1,0.5,2.7,1.5
	c0.6,1,0.9,2.1,0.9,3.4c0,1.4-0.3,2.5-0.9,3.5C125.2,84.2,124.3,84.7,123.2,84.7L123.2,84.7z M123.2,76.8c-1,0-1.6,1-1.6,3
	c0,2,0.5,3.1,1.6,3.1c1,0,1.5-1,1.5-3C124.7,77.8,124.2,76.8,123.2,76.8L123.2,76.8z M130,75.2h3.9c0.7,0,1.2,0.1,1.6,0.3
	c0.4,0.2,0.6,0.5,0.9,0.8c0.2,0.4,0.3,0.8,0.3,1.3c0,1-0.5,1.7-1.5,2.1c0.6,0.1,1,0.4,1.3,0.9c0.3,0.4,0.4,0.9,0.4,1.4
	c0,0.7-0.2,1.3-0.7,1.8c-0.5,0.5-1.3,0.8-2.3,0.8H130V75.2L130,75.2z M132,76.8v2.1h1.5c0.5,0,0.9-0.1,1-0.4
	c0.1-0.2,0.2-0.5,0.2-0.7c0-0.2-0.1-0.4-0.2-0.6c-0.1-0.2-0.2-0.3-0.4-0.3c-0.1,0-0.4-0.1-0.8-0.1H132L132,76.8z M132,80.6v2.3h1.5
	c0.5,0,0.9-0.1,1.1-0.3c0.2-0.2,0.3-0.5,0.3-0.8c0-0.3-0.1-0.6-0.3-0.8c-0.2-0.2-0.5-0.3-1-0.3H132L132,80.6z M144.3,75.2l2.6,9.4
	h-2.1l-0.5-1.9h-2.7l-0.5,1.9h-1.7l2.7-9.4H144.3L144.3,75.2z M142,80.9h1.8l-0.9-3.3L142,80.9L142,80.9z M154.4,80.8h-1.7l-1.4,3.7
	h-2.1l1.8-4.2c-1-0.5-1.5-1.3-1.5-2.4c0-0.7,0.2-1.3,0.6-1.9c0.4-0.6,1.2-0.9,2.4-0.9h3.7v9.4h-2V80.8L154.4,80.8z M154.4,76.8h-1.2
	c-0.5,0-0.8,0-0.9,0.1c-0.2,0.1-0.3,0.2-0.5,0.4c-0.1,0.2-0.2,0.4-0.2,0.7c0,0.3,0.1,0.5,0.2,0.7c0.1,0.2,0.3,0.4,0.5,0.4
	c0.2,0.1,0.5,0.1,0.8,0.1h1.2V76.8L154.4,76.8z M169.5,84.6l-2.1-7.7v7.7h-1.7v-9.4h3.1l1.5,5.6l1.6-5.6h3.1v9.4h-2v-7.7l-2.1,7.7
	H169.5L169.5,84.6z M184.6,77h-4v1.9h3.2v1.8h-3.2v2.1h4v1.9h-6v-9.4h6V77L184.6,77z M187.5,82.8l1.7-7.6h3l1.7,7.6h0.8v3.8h-1.3
	l-0.2-2h-5.2l-0.2,2h-1.3v-3.8H187.5L187.5,82.8z M189.2,82.8h2.7l-1.2-5.8h-0.3L189.2,82.8L189.2,82.8z M199.4,83.6v0.9h-1.9v-9.4
	h1.9v4c0,0.7,0,1.4-0.1,2.1c0.3-0.8,0.6-1.5,0.9-1.9l2-3.2v-1h1.9v9.4h-1.9v-4.3c0-0.7,0-1.3,0.1-1.8c-0.3,0.7-0.6,1.4-0.9,1.9
	L199.4,83.6L199.4,83.6z M207.9,84.6v-9.4h1.9v7.5h2.4v-7.5h1.9v7.5h1v3.8h-1.3l-0.2-2H207.9L207.9,84.6z M219.9,83.6v0.9H218v-9.4
	h1.9v4c0,0.7,0,1.4-0.1,2.1c0.3-0.8,0.6-1.5,0.9-1.9l2-3.2v-1h1.9v9.4h-1.9v-4.3c0-0.7,0-1.3,0.1-1.8c-0.3,0.7-0.6,1.4-0.9,1.9
	L219.9,83.6L219.9,83.6z M234.8,75.2v9.4h-1.9v-3.9h-2.6v3.9h-1.9v-9.4h1.9v3.7h2.6v-3.7H234.8L234.8,75.2z M245.2,78.7l-2.1,0.1
	c0-1.3-0.5-2-1.4-2c-1,0-1.5,1-1.5,3.1c0,1.2,0.1,2,0.4,2.4c0.3,0.4,0.7,0.6,1.2,0.6c0.8,0,1.3-0.6,1.5-1.8l1.9,0.1
	c-0.1,1.1-0.5,2-1.1,2.6c-0.6,0.6-1.4,0.9-2.3,0.9c-1.1,0-2-0.4-2.7-1.3c-0.7-0.9-1-2-1-3.6c0-1.4,0.3-2.6,1-3.5
	c0.7-0.9,1.6-1.4,2.8-1.4C243.9,75,245,76.2,245.2,78.7L245.2,78.7z M250.3,75.2v4.4l2.6-4.4h1.9l-2,3.4l2.5,6h-2.2l-1.7-4.1
	l-1.2,1.9v2.2h-1.9v-9.4H250.3L250.3,75.2z M262.4,75.2l2.6,9.4h-2.1l-0.5-1.9h-2.7l-0.5,1.9h-1.7l2.7-9.4H262.4L262.4,75.2z
	 M260.1,80.9h1.8l-0.9-3.3L260.1,80.9L260.1,80.9z M272.5,80.8h-1.7l-1.4,3.7h-2.1l1.8-4.2c-1-0.5-1.5-1.3-1.5-2.4
	c0-0.7,0.2-1.3,0.6-1.9c0.4-0.6,1.2-0.9,2.4-0.9h3.7v9.4h-2V80.8L272.5,80.8z M272.5,76.8h-1.2c-0.5,0-0.8,0-0.9,0.1
	c-0.2,0.1-0.3,0.2-0.4,0.4c-0.1,0.2-0.2,0.4-0.2,0.7c0,0.3,0.1,0.5,0.2,0.7c0.1,0.2,0.3,0.4,0.5,0.4c0.2,0.1,0.5,0.1,0.8,0.1h1.2
	V76.8L272.5,76.8z M285.8,75.2v4.4l2.6-4.4h1.9l-2,3.4l2.5,6h-2.2l-1.7-4.1l-1.2,1.9v2.2h-1.9v-9.4H285.8L285.8,75.2z M296.6,84.7
	c-1.1,0-2-0.5-2.6-1.4c-0.6-0.9-0.9-2.1-0.9-3.5c0-1.4,0.3-2.5,0.9-3.4c0.6-0.9,1.5-1.4,2.7-1.4c1.2,0,2.1,0.5,2.7,1.5
	c0.6,1,0.9,2.1,0.9,3.4c0,1.4-0.3,2.5-0.9,3.5C298.7,84.2,297.8,84.7,296.6,84.7L296.6,84.7z M296.7,76.8c-1,0-1.6,1-1.6,3
	c0,2,0.5,3.1,1.6,3.1c1,0,1.5-1,1.5-3C298.2,77.8,297.7,76.8,296.7,76.8L296.7,76.8z M307.2,84.6l-2.1-7.7v7.7h-1.7v-9.4h3.1
	l1.5,5.6l1.6-5.6h3.1v9.4h-2v-7.7l-2.1,7.7H307.2L307.2,84.6z M316.2,84.6v-9.4h6.3v9.4h-1.9v-7.7h-2.4v7.7H316.2L316.2,84.6z
	 M330.2,75.2l2.6,9.4h-2.1l-0.5-1.9h-2.7l-0.5,1.9h-1.7l2.7-9.4H330.2L330.2,75.2z M328,80.9h1.8l-0.9-3.3L328,80.9L328,80.9z
	 M342.2,75.2v9.4h-1.9v-3.9h-2.6v3.9h-1.9v-9.4h1.9v3.7h2.6v-3.7H342.2L342.2,75.2z M347.8,83.6v0.9h-1.9v-9.4h1.9v4
	c0,0.7,0,1.4-0.1,2.1c0.3-0.8,0.6-1.5,0.9-1.9l2-3.2v-1h1.9v9.4h-1.9v-4.3c0-0.7,0-1.3,0.1-1.8c-0.3,0.7-0.6,1.4-0.9,1.9L347.8,83.6
	L347.8,83.6z M360.9,80.8h-1.7l-1.4,3.7h-2.1l1.8-4.2c-1-0.5-1.5-1.3-1.5-2.4c0-0.7,0.2-1.3,0.6-1.9c0.4-0.6,1.2-0.9,2.4-0.9h3.7
	v9.4h-2V80.8L360.9,80.8z M360.9,76.8h-1.2c-0.5,0-0.8,0-0.9,0.1c-0.2,0.1-0.3,0.2-0.4,0.4c-0.1,0.2-0.2,0.4-0.2,0.7
	c0,0.3,0.1,0.5,0.2,0.7c0.1,0.2,0.3,0.4,0.5,0.4c0.2,0.1,0.5,0.1,0.8,0.1h1.2V76.8z"/>
</svg>
